<svg width="12" height="17" viewBox="0 0 12 17" fill="none" xmlns="http://www.w3.org/2000/svg">
<path d="M6.00012 17C4.33212 17 2.91512 16.417 1.74912 15.251C0.583122 14.085 0.00012207 12.668 0.00012207 11C0.00012207 9.62566 0.414539 8.40099 1.24337 7.32599C2.07221 6.25099 3.15329 5.54166 4.48662 5.19799C4.15329 5.12749 3.82512 5.01949 3.50212 4.87399C3.17896 4.72849 2.89879 4.53716 2.66162 4.29999C2.21429 3.85249 1.92421 3.32333 1.79137 2.71249C1.65871 2.10166 1.60204 1.48149 1.62137 0.851994C2.22521 0.83266 2.82296 0.88616 3.41462 1.01249C4.00629 1.13883 4.52579 1.41283 4.97312 1.83449C5.35646 2.17949 5.62921 2.59041 5.79137 3.06724C5.95354 3.54424 6.05329 4.04299 6.09062 4.56349C6.29446 4.07249 6.54087 3.60741 6.82987 3.16824C7.11904 2.72908 7.45529 2.31783 7.83862 1.93449C7.93212 1.84099 8.05004 1.79424 8.19237 1.79424C8.33471 1.79424 8.4527 1.84099 8.54637 1.93449C8.63987 2.02816 8.68662 2.14616 8.68662 2.28849C8.68662 2.43083 8.63987 2.54874 8.54637 2.64224C8.19254 2.99608 7.88029 3.37783 7.60962 3.78749C7.33912 4.19716 7.11804 4.63274 6.94637 5.09424C8.41304 5.31724 9.62196 5.98683 10.5731 7.10299C11.5245 8.21899 12.0001 9.51799 12.0001 11C12.0001 12.668 11.4171 14.085 10.2511 15.251C9.08512 16.417 7.66812 17 6.00012 17ZM6.00012 16C7.38346 16 8.56262 15.5125 9.53762 14.5375C10.5126 13.5625 11.0001 12.3833 11.0001 11C11.0001 9.61666 10.5126 8.43749 9.53762 7.46249C8.56262 6.48749 7.38346 5.99999 6.00012 5.99999C4.61679 5.99999 3.43762 6.48749 2.46262 7.46249C1.48762 8.43749 1.00012 9.61666 1.00012 11C1.00012 12.3833 1.48762 13.5625 2.46262 14.5375C3.43762 15.5125 4.61679 16 6.00012 16Z" fill="#646464"/>
</svg>
